<svg xmlns="http://www.w3.org/2000/svg" xmlns:xlink="http://www.w3.org/1999/xlink" width="1200" height="182" onload="init(evt)" version="1.1" viewBox="0 0 1200 182"><defs><linearGradient id="background" x1="0" x2="0" y1="0" y2="1"><stop offset="5%" stop-color="#eee"/><stop offset="95%" stop-color="#eeeeb0"/></linearGradient></defs><style type="text/css">text { font-family:Verdana; font-size:12px; fill:rgb(0,0,0); } #search, #ignorecase { opacity:0.1; cursor:pointer; } #search:hover, #search.show, #ignorecase:hover, #ignorecase.show { opacity:1; } #subtitle { text-anchor:middle; font-color:rgb(160,160,160); } #title { text-anchor:middle; font-size:17px} #unzoom { cursor:pointer; } #frames &gt; *:hover { stroke:black; stroke-width:0.5; cursor:pointer; } .hide { display:none; } .parent { opacity:0.5; }</style><script type="text/ecmascript"><![CDATA[
	"use strict";
	var details, searchbtn, unzoombtn, matchedtxt, svg, searching, currentSearchTerm, ignorecase, ignorecaseBtn;
	function init(evt) {
		details = document.getElementById("details").firstChild;
		searchbtn = document.getElementById("search");
		ignorecaseBtn = document.getElementById("ignorecase");
		unzoombtn = document.getElementById("unzoom");
		matchedtxt = document.getElementById("matched");
		svg = document.getElementsByTagName("svg")[0];
		searching = 0;
		currentSearchTerm = null;
	}

	window.addEventListener("click", function(e) {
		var target = find_group(e.target);
		if (target) {
			if (target.nodeName == "a") {
				if (e.ctrlKey === false) return;
				e.preventDefault();
			}
			if (target.classList.contains("parent")) unzoom();
			zoom(target);
		}
		else if (e.target.id == "unzoom") unzoom();
		else if (e.target.id == "search") search_prompt();
		else if (e.target.id == "ignorecase") toggle_ignorecase();
	}, false)

	// mouse-over for info
	// show
	window.addEventListener("mouseover", function(e) {
		var target = find_group(e.target);
		if (target) details.nodeValue = "Function: " + g_to_text(target);
	}, false)

	// clear
	window.addEventListener("mouseout", function(e) {
		var target = find_group(e.target);
		if (target) details.nodeValue = ' ';
	}, false)

	// ctrl-F for search
	window.addEventListener("keydown",function (e) {
		if (e.keyCode === 114 || (e.ctrlKey && e.keyCode === 70)) {
			e.preventDefault();
			search_prompt();
		}
	}, false)

	// ctrl-I to toggle case-sensitive search
	window.addEventListener("keydown",function (e) {
		if (e.ctrlKey && e.keyCode === 73) {
			e.preventDefault();
			toggle_ignorecase();
		}
	}, false)

	// functions
	function find_child(node, selector) {
		var children = node.querySelectorAll(selector);
		if (children.length) return children[0];
		return;
	}
	function find_group(node) {
		var parent = node.parentElement;
		if (!parent) return;
		if (parent.id == "frames") return node;
		return find_group(parent);
	}
	function orig_save(e, attr, val) {
		if (e.attributes["_orig_" + attr] != undefined) return;
		if (e.attributes[attr] == undefined) return;
		if (val == undefined) val = e.attributes[attr].value;
		e.setAttribute("_orig_" + attr, val);
	}
	function orig_load(e, attr) {
		if (e.attributes["_orig_"+attr] == undefined) return;
		e.attributes[attr].value = e.attributes["_orig_" + attr].value;
		e.removeAttribute("_orig_"+attr);
	}
	function g_to_text(e) {
		var text = find_child(e, "title").firstChild.nodeValue;
		return (text)
	}
	function g_to_func(e) {
		var func = g_to_text(e);
		// if there's any manipulation we want to do to the function
		// name before it's searched, do it here before returning.
		return (func);
	}
	function update_text(e) {
		var r = find_child(e, "rect");
		var t = find_child(e, "text");
		var w = parseFloat(r.attributes.width.value) -3;
		var txt = find_child(e, "title").textContent.replace(/\([^(]*\)$/,"");
		t.attributes.x.value = parseFloat(r.attributes.x.value) + 3;

		// Smaller than this size won't fit anything
		if (w < 2 * 12 * 0.59) {
			t.textContent = "";
			return;
		}

		t.textContent = txt;
		// Fit in full text width
		if (/^ *$/.test(txt) || t.getSubStringLength(0, txt.length) < w)
			return;

		for (var x = txt.length - 2; x > 0; x--) {
			if (t.getSubStringLength(0, x + 2) <= w) {
				t.textContent = txt.substring(0, x) + "..";
				return;
			}
		}
		t.textContent = "";
	}

	// zoom
	function zoom_reset(e) {
		if (e.attributes != undefined) {
			orig_load(e, "x");
			orig_load(e, "width");
		}
		if (e.childNodes == undefined) return;
		for (var i = 0, c = e.childNodes; i < c.length; i++) {
			zoom_reset(c[i]);
		}
	}
	function zoom_child(e, x, ratio) {
		if (e.attributes != undefined) {
			if (e.attributes.x != undefined) {
				orig_save(e, "x");
				e.attributes.x.value = (parseFloat(e.attributes.x.value) - x - 10) * ratio + 10;
				if (e.tagName == "text")
					e.attributes.x.value = find_child(e.parentNode, "rect[x]").attributes.x.value + 3;
			}
			if (e.attributes.width != undefined) {
				orig_save(e, "width");
				e.attributes.width.value = parseFloat(e.attributes.width.value) * ratio;
			}
		}

		if (e.childNodes == undefined) return;
		for (var i = 0, c = e.childNodes; i < c.length; i++) {
			zoom_child(c[i], x - 10, ratio);
		}
	}
	function zoom_parent(e) {
		if (e.attributes) {
			if (e.attributes.x != undefined) {
				orig_save(e, "x");
				e.attributes.x.value = 10;
			}
			if (e.attributes.width != undefined) {
				orig_save(e, "width");
				e.attributes.width.value = parseInt(svg.width.baseVal.value) - (10 * 2);
			}
		}
		if (e.childNodes == undefined) return;
		for (var i = 0, c = e.childNodes; i < c.length; i++) {
			zoom_parent(c[i]);
		}
	}
	function zoom(node) {
		var attr = find_child(node, "rect").attributes;
		var width = parseFloat(attr.width.value);
		var xmin = parseFloat(attr.x.value);
		var xmax = parseFloat(xmin + width);
		var ymin = parseFloat(attr.y.value);
		var ratio = (svg.width.baseVal.value - 2 * 10) / width;

		// XXX: Workaround for JavaScript float issues (fix me)
		var fudge = 0.0001;

		unzoombtn.classList.remove("hide");

		var el = document.getElementById("frames").children;
		for (var i = 0; i < el.length; i++) {
			var e = el[i];
			var a = find_child(e, "rect").attributes;
			var ex = parseFloat(a.x.value);
			var ew = parseFloat(a.width.value);
			var upstack;
			// Is it an ancestor
			if (0 == 0) {
				upstack = parseFloat(a.y.value) > ymin;
			} else {
				upstack = parseFloat(a.y.value) < ymin;
			}
			if (upstack) {
				// Direct ancestor
				if (ex <= xmin && (ex+ew+fudge) >= xmax) {
					e.classList.add("parent");
					zoom_parent(e);
					update_text(e);
				}
				// not in current path
				else
					e.classList.add("hide");
			}
			// Children maybe
			else {
				// no common path
				if (ex < xmin || ex + fudge >= xmax) {
					e.classList.add("hide");
				}
				else {
					zoom_child(e, xmin, ratio);
					update_text(e);
				}
			}
		}
		search();
	}
	function unzoom() {
		unzoombtn.classList.add("hide");
		var el = document.getElementById("frames").children;
		for(var i = 0; i < el.length; i++) {
			el[i].classList.remove("parent");
			el[i].classList.remove("hide");
			zoom_reset(el[i]);
			update_text(el[i]);
		}
		search();
	}

	// search
	function toggle_ignorecase() {
		ignorecase = !ignorecase;
		if (ignorecase) {
			ignorecaseBtn.classList.add("show");
		} else {
			ignorecaseBtn.classList.remove("show");
		}
		reset_search();
		search();
	}
	function reset_search() {
		var el = document.querySelectorAll("#frames rect");
		for (var i = 0; i < el.length; i++) {
			orig_load(el[i], "fill")
		}
	}
	function search_prompt() {
		if (!searching) {
			var term = prompt("Enter a search term (regexp " +
			    "allowed, eg: ^ext4_)"
			    + (ignorecase ? ", ignoring case" : "")
			    + "\nPress Ctrl-i to toggle case sensitivity", "");
			if (term != null) {
				currentSearchTerm = term;
				search();
			}
		} else {
			reset_search();
			searching = 0;
			currentSearchTerm = null;
			searchbtn.classList.remove("show");
			searchbtn.firstChild.nodeValue = "Search"
			matchedtxt.classList.add("hide");
			matchedtxt.firstChild.nodeValue = ""
		}
	}
	function search(term) {
		if (currentSearchTerm === null) return;
		var term = currentSearchTerm;

		var re = new RegExp(term, ignorecase ? 'i' : '');
		var el = document.getElementById("frames").children;
		var matches = new Object();
		var maxwidth = 0;
		for (var i = 0; i < el.length; i++) {
			var e = el[i];
			var func = g_to_func(e);
			var rect = find_child(e, "rect");
			if (func == null || rect == null)
				continue;

			// Save max width. Only works as we have a root frame
			var w = parseFloat(rect.attributes.width.value);
			if (w > maxwidth)
				maxwidth = w;

			if (func.match(re)) {
				// highlight
				var x = parseFloat(rect.attributes.x.value);
				orig_save(rect, "fill");
				rect.attributes.fill.value = "rgb(230,0,230)";

				// remember matches
				if (matches[x] == undefined) {
					matches[x] = w;
				} else {
					if (w > matches[x]) {
						// overwrite with parent
						matches[x] = w;
					}
				}
				searching = 1;
			}
		}
		if (!searching)
			return;

		searchbtn.classList.add("show");
		searchbtn.firstChild.nodeValue = "Reset Search";

		// calculate percent matched, excluding vertical overlap
		var count = 0;
		var lastx = -1;
		var lastw = 0;
		var keys = Array();
		for (k in matches) {
			if (matches.hasOwnProperty(k))
				keys.push(k);
		}
		// sort the matched frames by their x location
		// ascending, then width descending
		keys.sort(function(a, b){
			return a - b;
		});
		// Step through frames saving only the biggest bottom-up frames
		// thanks to the sort order. This relies on the tree property
		// where children are always smaller than their parents.
		var fudge = 0.0001;	// JavaScript floating point
		for (var k in keys) {
			var x = parseFloat(keys[k]);
			var w = matches[keys[k]];
			if (x >= lastx + lastw - fudge) {
				count += w;
				lastx = x;
				lastw = w;
			}
		}
		// display matched percent
		matchedtxt.classList.remove("hide");
		var pct = 100 * count / maxwidth;
		if (pct != 100) pct = pct.toFixed(1)
		matchedtxt.firstChild.nodeValue = "Matched: " + pct + "%";
	}
]]></script><rect width="1200" height="182" x="0" y="0" fill="url(#background)"/><text id="title" x="600" y="24">Lua-land on-CPU flamegraph</text><text id="unzoom" x="10" y="24" class="hide">Reset Zoom</text><text id="search" x="1090" y="24">Search</text><text id="ignorecase" x="1174" y="24">ic</text><g id="frames"><g><title>_int_malloc (11 samples, 1.58%)</title><rect width="18.6" height="15" x="229.8" y="53" fill="#EB5D2B" rx="2" ry="2"/></g><g><title>lj_str_new (10 samples, 1.43%)</title><rect width="16.9" height="15" x="381.9" y="53" fill="#DB0A17" rx="2" ry="2"/></g><g><title>gc_sweep (15 samples, 2.15%)</title><rect width="25.3" height="15" x="121.6" y="69" fill="#D37217" rx="2" ry="2"/><text x="124.58" y="79.5">g..</text></g><g><title>lj_lib_checkint (3 samples, 0.43%)</title><rect width="5" height="15" x="554.4" y="69" fill="#FB4831" rx="2" ry="2"/></g><g><title>0x7f452cf23baf (3 samples, 0.43%)</title><rect width="5.1" height="15" x="1056.4" y="69" fill="#CF2636" rx="2" ry="2"/></g><g><title>@/usr/local/apioak/apioak/apioak.lua:6 (71 samples, 10.17%)</title><rect width="120" height="15" x="745.4" y="85" fill="#E71A35" rx="2" ry="2"/><text x="748.39" y="95.5">@/usr/local/ap..</text></g><g><title>ngx_pnalloc (3 samples, 0.43%)</title><rect width="5.1" height="15" x="1146" y="69" fill="#E34B26" rx="2" ry="2"/></g><g><title>lj_BC_CAT (5 samples, 0.72%)</title><rect width="8.4" height="15" x="605.1" y="85" fill="#F4311B" rx="2" ry="2"/></g><g><title>r3_vector__expand (5 samples, 0.72%)</title><rect width="8.5" height="15" x="312.6" y="53" fill="#FC5521" rx="2" ry="2"/></g><g><title>ngx_http_set_header_helper (9 samples, 1.29%)</title><rect width="15.2" height="15" x="1130.8" y="69" fill="#EAE123" rx="2" ry="2"/></g><g><title>ngx_http_lua_set_output_header (4 samples, 0.57%)</title><rect width="6.8" height="15" x="878.9" y="69" fill="#EC891A" rx="2" ry="2"/></g><g><title>@/usr/local/apioak/apioak/apioak.lua:131 (71 samples, 10.17%)</title><rect width="120" height="15" x="745.4" y="101" fill="#F4640D" rx="2" ry="2"/><text x="748.39" y="111.5">@/usr/local/a..</text></g><g><title>rehashtab (3 samples, 0.43%)</title><rect width="5.1" height="15" x="600" y="69" fill="#CE042F" rx="2" ry="2"/></g><g><title>lj_BC_TGETS (3 samples, 0.43%)</title><rect width="5.1" height="15" x="503.6" y="69" fill="#EC131E" rx="2" ry="2"/></g><g><title>C:ngx_http_lua_ngx_say (48 samples, 6.88%)</title><rect width="81.2" height="15" x="895.8" y="101" fill="#CD8714" rx="2" ry="2"/><text x="898.85" y="111.5">C:ngx_htt..</text></g><g><title>@/usr/local/apioak/apioak/sys/router.lua:155 (113 samples, 16.19%)</title><rect width="191" height="15" x="185.8" y="85" fill="#DB361F" rx="2" ry="2"/><text x="188.82" y="95.5">@/usr/local/apioak/apioak/..</text></g><g><title>T:@/usr/local/apioak/deps/share/lua/5.1/resty/chash.lua:260 (28 samples, 4.01%)</title><rect width="47.3" height="15" x="671" y="69" fill="#DB0225" rx="2" ry="2"/><text x="674" y="79.5">T:@/..</text></g><g><title>@/usr/local/apioak/apioak/pdk/plugin.lua:8 (71 samples, 10.17%)</title><rect width="120" height="15" x="745.4" y="69" fill="#DE4E26" rx="2" ry="2"/><text x="748.39" y="79.5">@/usr/local/ap..</text></g><g><title>__GI_memset (4 samples, 0.57%)</title><rect width="6.8" height="15" x="895.8" y="85" fill="#FE5304" rx="2" ry="2"/></g><g><title>rehashtab (9 samples, 1.29%)</title><rect width="15.3" height="15" x="843.4" y="37" fill="#F44608" rx="2" ry="2"/></g><g><title>lj_BC_CALL (4 samples, 0.57%)</title><rect width="6.8" height="15" x="398.8" y="69" fill="#FB8F32" rx="2" ry="2"/></g><g><title>T:@/usr/local/apioak/apioak/sys/router.lua:140 (37 samples, 5.30%)</title><rect width="62.6" height="15" x="59" y="69" fill="#DC2223" rx="2" ry="2"/><text x="62.03" y="79.5">T:@/ho..</text></g><g><title>ngx_http_lua_set_input_header (5 samples, 0.72%)</title><rect width="8.5" height="15" x="456.3" y="53" fill="#E20F0E" rx="2" ry="2"/></g><g><title>lj_alloc_malloc (3 samples, 0.43%)</title><rect width="5.1" height="15" x="430.9" y="53" fill="#FDC830" rx="2" ry="2"/></g><g><title>@/usr/local/openresty/lualib/resty/core/var.lua:78 (24 samples, 3.44%)</title><rect width="40.5" height="15" x="480" y="85" fill="#CE560C" rx="2" ry="2"/><text x="482.97" y="95.5">@/h..</text></g><g><title>lj_BC_JFUNCF (3 samples, 0.43%)</title><rect width="5" height="15" x="498.6" y="69" fill="#FD5D15" rx="2" ry="2"/></g><g><title>@/usr/local/apioak/apioak/apioak.lua:6 (29 samples, 4.15%)</title><rect width="49" height="15" x="10" y="85" fill="#CD010B" rx="2" ry="2"/><text x="13" y="95.5">@/ho..</text></g><g><title>ngx_strlow (7 samples, 1.00%)</title><rect width="11.9" height="15" x="1151.1" y="69" fill="#F9402D" rx="2" ry="2"/></g><g><title>C:ngx_http_lua_ngx_crc32_short (7 samples, 1.00%)</title><rect width="11.8" height="15" x="659.2" y="53" fill="#FE6E2D" rx="2" ry="2"/></g><g><title>lj_tab_set (3 samples, 0.43%)</title><rect width="5" height="15" x="106.4" y="53" fill="#E66F29" rx="2" ry="2"/></g><g><title>rehashtab (3 samples, 0.43%)</title><rect width="5.1" height="15" x="1024.3" y="37" fill="#EA2224" rx="2" ry="2"/></g><g><title>lj_tab_new (4 samples, 0.57%)</title><rect width="6.8" height="15" x="94.5" y="53" fill="#F3A026" rx="2" ry="2"/></g><g><title>lj_tab_newkey (7 samples, 1.00%)</title><rect width="11.8" height="15" x="268.7" y="53" fill="#D9551B" rx="2" ry="2"/></g><g><title>ngx_http_header_filter (12 samples, 1.72%)</title><rect width="20.3" height="15" x="926.3" y="85" fill="#F96001" rx="2" ry="2"/></g><g><title>propagatemark (3 samples, 0.43%)</title><rect width="5.1" height="15" x="451.2" y="69" fill="#E25312" rx="2" ry="2"/></g><g><title>lj_BC_TGETS (11 samples, 1.58%)</title><rect width="18.6" height="15" x="613.5" y="85" fill="#DD2511" rx="2" ry="2"/></g><g><title>@/usr/local/apioak/apioak/pdk/plugin.lua:8 (16 samples, 2.29%)</title><rect width="27" height="15" x="1163" y="69" fill="#E59028" rx="2" ry="2"/><text x="1165.95" y="79.5">@..</text></g><g><title>__memcpy_ssse3_back (4 samples, 0.57%)</title><rect width="6.8" height="15" x="671" y="53" fill="#F68831" rx="2" ry="2"/></g><g><title>@/usr/local/apioak/apioak/sys/router.lua:169 (13 samples, 1.86%)</title><rect width="22" height="15" x="376.8" y="85" fill="#DAB306" rx="2" ry="2"/><text x="379.85" y="95.5">@..</text></g><g><title>lj_BC_TGETS (5 samples, 0.72%)</title><rect width="8.5" height="15" x="865.4" y="85" fill="#F90516" rx="2" ry="2"/></g><g><title>propagatemark (10 samples, 1.43%)</title><rect width="16.9" height="15" x="359.9" y="69" fill="#D86008" rx="2" ry="2"/></g><g><title>@/usr/local/apioak/apioak/apioak.lua:6 (41 samples, 5.87%)</title><rect width="69.3" height="15" x="977" y="85" fill="#E42F19" rx="2" ry="2"/><text x="979.99" y="95.5">@/usr/l..</text></g><g><title>T:@/usr/local/apioak/apioak/pdk/plugin.lua:8 (16 samples, 2.29%)</title><rect width="27" height="15" x="1163" y="53" fill="#D4C91C" rx="2" ry="2"/><text x="1165.95" y="63.5">T..</text></g><g><title>_IO_str_init_static_internal (3 samples, 0.43%)</title><rect width="5.1" height="15" x="192.6" y="53" fill="#D49026" rx="2" ry="2"/></g><g><title>=log_by_lua(nginx.conf:131):0 (16 samples, 2.29%)</title><rect width="27" height="15" x="1163" y="117" fill="#FC7418" rx="2" ry="2"/><text x="1165.95" y="127.5">=..</text></g><g><title>gc_sweep (7 samples, 1.00%)</title><rect width="11.8" height="15" x="1029.4" y="53" fill="#F33E31" rx="2" ry="2"/></g><g><title>lj_tab_len (4 samples, 0.57%)</title><rect width="6.8" height="15" x="831.6" y="37" fill="#E0A016" rx="2" ry="2"/></g><g><title>@/usr/local/openresty/lualib/resty/core/misc.lua:56 (15 samples, 2.15%)</title><rect width="25.4" height="15" x="430.9" y="85" fill="#D13B26" rx="2" ry="2"/><text x="433.95" y="95.5">@..</text></g><g><title>=header_filter_by_lua:0 (110 samples, 15.76%)</title><rect width="186" height="15" x="977" y="117" fill="#E90610" rx="2" ry="2"/><text x="979.99" y="127.5">=header_filter_by_lua:0</text></g><g><title>@/usr/local/openresty/lualib/resty/core/misc.lua:66 (3 samples, 0.43%)</title><rect width="5" height="15" x="873.9" y="101" fill="#E7931A" rx="2" ry="2"/></g><g><title>lj_str_new (7 samples, 1.00%)</title><rect width="11.8" height="15" x="1169.7" y="37" fill="#E3820E" rx="2" ry="2"/></g><g><title>builtin#5 (3 samples, 0.43%)</title><rect width="5.1" height="15" x="584.8" y="85" fill="#EFDE1D" rx="2" ry="2"/></g><g><title>lj_alloc_free (3 samples, 0.43%)</title><rect width="5.1" height="15" x="1041.2" y="53" fill="#E05834" rx="2" ry="2"/></g><g><title>=body_filter_by_lua:0 (71 samples, 10.17%)</title><rect width="120" height="15" x="745.4" y="117" fill="#CF5022" rx="2" ry="2"/><text x="748.39" y="127.5">=body_filter_b..</text></g><g><title>propagatemark (5 samples, 0.72%)</title><rect width="8.5" height="15" x="736.9" y="85" fill="#F98310" rx="2" ry="2"/></g><g><title>lj_str_new (9 samples, 1.29%)</title><rect width="15.3" height="15" x="253.4" y="53" fill="#E45227" rx="2" ry="2"/></g><g><title>lj_BC_TGETS (9 samples, 1.29%)</title><rect width="15.2" height="15" x="410.7" y="69" fill="#FCDF31" rx="2" ry="2"/></g><g><title>lj_str_new (18 samples, 2.58%)</title><rect width="30.5" height="15" x="987.1" y="37" fill="#E07F19" rx="2" ry="2"/><text x="990.13" y="47.5">lj..</text></g><g><title>ngx_hash_key_lc (11 samples, 1.58%)</title><rect width="18.6" height="15" x="1081.8" y="69" fill="#ED3627" rx="2" ry="2"/></g><g><title>ngx_http_set_header_helper (4 samples, 0.57%)</title><rect width="6.7" height="15" x="464.8" y="53" fill="#E68E2B" rx="2" ry="2"/></g><g><title>rehashtab (5 samples, 0.72%)</title><rect width="8.5" height="15" x="1181.5" y="37" fill="#FBC21A" rx="2" ry="2"/></g><g><title>lj_alloc_free (4 samples, 0.57%)</title><rect width="6.7" height="15" x="858.7" y="53" fill="#EECD02" rx="2" ry="2"/></g><g><title>@/usr/local/apioak/deps/share/lua/5.1/resty/chash.lua:292 (7 samples, 1.00%)</title><rect width="11.8" height="15" x="659.2" y="69" fill="#E4A409" rx="2" ry="2"/></g><g><title>@/usr/local/apioak/apioak/apioak.lua:137 (16 samples, 2.29%)</title><rect width="27" height="15" x="1163" y="101" fill="#FB6235" rx="2" ry="2"/><text x="1165.95" y="111.5">@..</text></g><g><title>lj_cf_table_insert (3 samples, 0.43%)</title><rect width="5.1" height="15" x="594.9" y="69" fill="#EF632E" rx="2" ry="2"/></g><g><title>mmcall (4 samples, 0.57%)</title><rect width="6.8" height="15" x="647.3" y="85" fill="#FD022A" rx="2" ry="2"/></g><g><title>ngx_http_lua_ffi_set_resp_header (6 samples, 0.86%)</title><rect width="10.1" height="15" x="1100.4" y="69" fill="#EC7D2D" rx="2" ry="2"/></g><g><title>T:@/usr/local/openresty/lualib/resty/core/misc.lua:66 (3 samples, 0.43%)</title><rect width="5" height="15" x="873.9" y="85" fill="#D21E03" rx="2" ry="2"/></g><g><title>=content_by_lua(nginx.conf:92):0 (66 samples, 9.46%)</title><rect width="111.6" height="15" x="865.4" y="117" fill="#E33D01" rx="2" ry="2"/><text x="868.42" y="127.5">=content_by_l..</text></g><g><title>r3_tree_matchl_base (12 samples, 1.72%)</title><rect width="20.3" height="15" x="292.3" y="53" fill="#DB3D18" rx="2" ry="2"/></g><g><title>ngx_palloc (6 samples, 0.86%)</title><rect width="10.2" height="15" x="966.8" y="85" fill="#CF0512" rx="2" ry="2"/></g><g><title>lj_alloc_free (5 samples, 0.72%)</title><rect width="8.4" height="15" x="442.8" y="69" fill="#E7CE2C" rx="2" ry="2"/></g><g><title>ngx_strncasecmp (3 samples, 0.43%)</title><rect width="5.1" height="15" x="885.7" y="69" fill="#DD8E10" rx="2" ry="2"/></g><g><title>lj_alloc_malloc (3 samples, 0.43%)</title><rect width="5.1" height="15" x="549.3" y="69" fill="#DE611F" rx="2" ry="2"/></g><g><title>T:@/usr/local/apioak/apioak/pdk/plugin.lua:8 (67 samples, 9.60%)</title><rect width="113.3" height="15" x="745.4" y="53" fill="#D64D23" rx="2" ry="2"/><text x="748.39" y="63.5">T:@/usr/local..</text></g><g><title>lj_BC_RET (7 samples, 1.00%)</title><rect width="11.8" height="15" x="530.7" y="69" fill="#F2320D" rx="2" ry="2"/></g><g><title>_IO_vfprintf (11 samples, 1.58%)</title><rect width="18.5" height="15" x="197.7" y="53" fill="#DD182D" rx="2" ry="2"/></g><g><title>lj_alloc_malloc (3 samples, 0.43%)</title><rect width="5.1" height="15" x="774.1" y="37" fill="#E55D1E" rx="2" ry="2"/></g><g><title>lj_tab_free (3 samples, 0.43%)</title><rect width="5" height="15" x="158.8" y="69" fill="#E5BF2D" rx="2" ry="2"/></g><g><title>ngx_output_chain (3 samples, 0.43%)</title><rect width="5" height="15" x="961.8" y="85" fill="#D79529" rx="2" ry="2"/></g><g><title>gc_sweep (4 samples, 0.57%)</title><rect width="6.8" height="15" x="436" y="69" fill="#CD8128" rx="2" ry="2"/></g><g><title>@/usr/local/apioak/apioak/sys/balancer.lua:92 (35 samples, 5.01%)</title><rect width="59.1" height="15" x="659.2" y="85" fill="#F95F0D" rx="2" ry="2"/><text x="662.17" y="95.5">@/usr/..</text></g><g><title>propagatemark (4 samples, 0.57%)</title><rect width="6.8" height="15" x="578" y="69" fill="#E6230F" rx="2" ry="2"/></g><g><title>ngx_http_lua_ngx_crc32_short (7 samples, 1.00%)</title><rect width="11.8" height="15" x="659.2" y="37" fill="#F76210" rx="2" ry="2"/></g><g><title>T:@/usr/local/apioak/apioak/pdk/plugin.lua:8 (31 samples, 4.44%)</title><rect width="52.4" height="15" x="977" y="53" fill="#E78C31" rx="2" ry="2"/><text x="979.99" y="63.5">T:@/h..</text></g><g><title>@/usr/local/apioak/apioak/apioak.lua:113 (51 samples, 7.31%)</title><rect width="86.2" height="15" x="659.2" y="101" fill="#F6720D" rx="2" ry="2"/><text x="662.17" y="111.5">@/usr/loca..</text></g><g><title>T:@/usr/local/openresty/lualib/resty/core/request.lua:299 (14 samples, 2.01%)</title><rect width="23.7" height="15" x="456.3" y="69" fill="#CD3328" rx="2" ry="2"/><text x="459.3" y="79.5">T..</text></g><g><title>lj_buf_putstr (3 samples, 0.43%)</title><rect width="5" height="15" x="982.1" y="37" fill="#DC6934" rx="2" ry="2"/></g><g><title>lua_tolstring (3 samples, 0.43%)</title><rect width="5.1" height="15" x="916.1" y="85" fill="#CD2D03" rx="2" ry="2"/></g><g><title>0x7f452cf25216 (3 samples, 0.43%)</title><rect width="5" height="15" x="873.9" y="69" fill="#FA161B" rx="2" ry="2"/></g><g><title>ngx_http_lua_set_output_header (12 samples, 1.72%)</title><rect width="20.3" height="15" x="1110.5" y="69" fill="#EE601C" rx="2" ry="2"/></g><g><title>rehashtab (3 samples, 0.43%)</title><rect width="5" height="15" x="713.3" y="53" fill="#E69936" rx="2" ry="2"/></g><g><title>lj_meta_tset (3 samples, 0.43%)</title><rect width="5.1" height="15" x="637.2" y="85" fill="#D6D830" rx="2" ry="2"/></g><g><title>T:@/usr/local/openresty/lualib/resty/core/ctx.lua:33 (3 samples, 0.43%)</title><rect width="5.1" height="15" x="430.9" y="69" fill="#E47710" rx="2" ry="2"/></g><g><title>T:@/usr/local/openresty/lualib/resty/core/response.lua:48 (7 samples, 1.00%)</title><rect width="11.9" height="15" x="878.9" y="85" fill="#EB430C" rx="2" ry="2"/></g><g><title>lj_tab_newkey (3 samples, 0.43%)</title><rect width="5.1" height="15" x="101.3" y="53" fill="#CFB31E" rx="2" ry="2"/></g><g><title>lj_str_new (16 samples, 2.29%)</title><rect width="27" height="15" x="16.8" y="37" fill="#D89414" rx="2" ry="2"/><text x="19.76" y="47.5">l..</text></g><g><title>T:@/usr/local/apioak/apioak/apioak.lua:6 (3 samples, 0.43%)</title><rect width="5.1" height="15" x="654.1" y="101" fill="#DB110E" rx="2" ry="2"/></g><g><title>@/usr/local/apioak/apioak/apioak.lua:62 (381 samples, 54.58%)</title><rect width="644.1" height="15" x="10" y="101" fill="#CE302D" rx="2" ry="2"/><text x="13" y="111.5">@/usr/local/apioak/apioak/apioak.lua:62</text></g><g><title>@/usr/local/openresty/lualib/resty/core/response.lua:48 (10 samples, 1.43%)</title><rect width="16.9" height="15" x="878.9" y="101" fill="#D34D0F" rx="2" ry="2"/></g><g><title>T:@/usr/local/apioak/apioak/sys/router.lua:169 (13 samples, 1.86%)</title><rect width="22" height="15" x="376.8" y="69" fill="#F8E12A" rx="2" ry="2"/><text x="379.85" y="79.5">T..</text></g><g><title>@/usr/local/apioak/apioak/apioak.lua:6 (16 samples, 2.29%)</title><rect width="27" height="15" x="1163" y="85" fill="#D3101F" rx="2" ry="2"/><text x="1165.95" y="95.5">@..</text></g><g><title>lj_tab_new (11 samples, 1.58%)</title><rect width="18.6" height="15" x="559.4" y="69" fill="#E99C1E" rx="2" ry="2"/></g><g><title>ngx_vslprintf (3 samples, 0.43%)</title><rect width="5.1" height="15" x="708.2" y="53" fill="#DF9616" rx="2" ry="2"/></g><g><title>@/usr/local/apioak/apioak/pdk/plugin.lua:8 (29 samples, 4.15%)</title><rect width="49" height="15" x="10" y="69" fill="#FB4832" rx="2" ry="2"/><text x="13" y="79.5">@/ho..</text></g><g><title>gc_sweep (3 samples, 0.43%)</title><rect width="5.1" height="15" x="718.3" y="85" fill="#F76918" rx="2" ry="2"/></g><g><title>lj_mem_realloc (3 samples, 0.43%)</title><rect width="5.1" height="15" x="65.8" y="53" fill="#FE280D" rx="2" ry="2"/></g><g><title>ngx_http_set_host_header (5 samples, 0.72%)</title><rect width="8.5" height="15" x="471.5" y="53" fill="#D53802" rx="2" ry="2"/></g><g><title>lj_strscan_scan (5 samples, 0.72%)</title><rect width="8.5" height="15" x="684.5" y="53" fill="#E2B12B" rx="2" ry="2"/></g><g><title>lj_alloc_malloc (7 samples, 1.00%)</title><rect width="11.8" height="15" x="508.7" y="69" fill="#DD5032" rx="2" ry="2"/></g><g><title>lj_alloc_free (4 samples, 0.57%)</title><rect width="6.8" height="15" x="542.5" y="69" fill="#D4931D" rx="2" ry="2"/></g><g><title>__memcpy_ssse3_back (8 samples, 1.15%)</title><rect width="13.5" height="15" x="902.6" y="85" fill="#F7A817" rx="2" ry="2"/></g><g><title>_IO_default_xsputn (4 samples, 0.57%)</title><rect width="6.8" height="15" x="185.8" y="53" fill="#CEB527" rx="2" ry="2"/></g><g><title>propagatemark (13 samples, 1.86%)</title><rect width="22" height="15" x="163.8" y="69" fill="#E8CC20" rx="2" ry="2"/><text x="166.84" y="79.5">p..</text></g><g><title>__memcpy_ssse3_back (9 samples, 1.29%)</title><rect width="15.2" height="15" x="1066.6" y="69" fill="#F05917" rx="2" ry="2"/></g><g><title>strchrnul (3 samples, 0.43%)</title><rect width="5" height="15" x="321.1" y="53" fill="#D4A001" rx="2" ry="2"/></g><g><title>0x7f452cf23bde (3 samples, 0.43%)</title><rect width="5.1" height="15" x="1061.5" y="69" fill="#D05D00" rx="2" ry="2"/></g><g><title>lj_str_new (3 samples, 0.43%)</title><rect width="5" height="15" x="642.3" y="85" fill="#DD5115" rx="2" ry="2"/></g><g><title>T:@/usr/local/openresty/lualib/resty/core/var.lua:78 (3 samples, 0.43%)</title><rect width="5" height="15" x="480" y="69" fill="#F07D01" rx="2" ry="2"/></g><g><title>lj_alloc_free (11 samples, 1.58%)</title><rect width="18.6" height="15" x="341.3" y="69" fill="#FAD209" rx="2" ry="2"/></g><g><title>lj_str_new (4 samples, 0.57%)</title><rect width="6.7" height="15" x="677.8" y="53" fill="#F47C13" rx="2" ry="2"/></g><g><title>lj_alloc_malloc (4 samples, 0.57%)</title><rect width="6.8" height="15" x="59" y="53" fill="#ECCC15" rx="2" ry="2"/></g><g><title>lj_str_new (27 samples, 3.87%)</title><rect width="45.6" height="15" x="786" y="37" fill="#ED932C" rx="2" ry="2"/><text x="788.96" y="47.5">lj_s..</text></g><g><title>all (698 samples, 100%)</title><rect width="1180" height="15" x="10" y="133" fill="#EB422A" rx="2" ry="2"/></g><g><title>ngx_http_chunked_header_filter (3 samples, 0.43%)</title><rect width="5.1" height="15" x="921.2" y="85" fill="#CD3011" rx="2" ry="2"/></g><g><title>lj_tab_resize (4 samples, 0.57%)</title><rect width="6.7" height="15" x="1017.6" y="37" fill="#DDCD29" rx="2" ry="2"/></g><g><title>builtin#101 (38 samples, 5.44%)</title><rect width="64.3" height="15" x="520.5" y="85" fill="#D8A207" rx="2" ry="2"/><text x="523.54" y="95.5">builtin..</text></g><g><title>=balancer_by_lua:0 (51 samples, 7.31%)</title><rect width="86.2" height="15" x="659.2" y="117" fill="#ED0501" rx="2" ry="2"/><text x="662.17" y="127.5">=balancer_..</text></g><g><title>gc_sweep (6 samples, 0.86%)</title><rect width="10.2" height="15" x="520.5" y="69" fill="#DD5131" rx="2" ry="2"/></g><g><title>lj_ffh_pairs (3 samples, 0.43%)</title><rect width="5.1" height="15" x="584.8" y="69" fill="#E79526" rx="2" ry="2"/></g><g><title>lj_alloc_free (5 samples, 0.72%)</title><rect width="8.4" height="15" x="765.7" y="37" fill="#D49C0B" rx="2" ry="2"/></g><g><title>lj_BC_CALLT (3 samples, 0.43%)</title><rect width="5.1" height="15" x="405.6" y="69" fill="#E89D32" rx="2" ry="2"/></g><g><title>lj_buf_putstr (4 samples, 0.57%)</title><rect width="6.8" height="15" x="779.2" y="37" fill="#FD4D1A" rx="2" ry="2"/></g><g><title>ngx_http_lua_ffi_req_get_headers (3 samples, 0.43%)</title><rect width="5.1" height="15" x="111.4" y="53" fill="#FD801C" rx="2" ry="2"/></g><g><title>0x7f452cf23b92 (6 samples, 0.86%)</title><rect width="10.1" height="15" x="1046.3" y="69" fill="#ECE016" rx="2" ry="2"/></g><g><title>lj_BC_UGET (3 samples, 0.43%)</title><rect width="5" height="15" x="425.9" y="69" fill="#FA2620" rx="2" ry="2"/></g><g><title>lj_buf_putstr (4 samples, 0.57%)</title><rect width="6.8" height="15" x="10" y="37" fill="#E3B514" rx="2" ry="2"/></g><g><title>rehashtab (9 samples, 1.29%)</title><rect width="15.2" height="15" x="43.8" y="37" fill="#E9CD07" rx="2" ry="2"/></g><g><title>ngx_http_lua_ngx_echo (3 samples, 0.43%)</title><rect width="5" height="15" x="946.6" y="85" fill="#F7A216" rx="2" ry="2"/></g><g><title>__memcpy_ssse3_back (3 samples, 0.43%)</title><rect width="5.1" height="15" x="977" y="37" fill="#E5AB28" rx="2" ry="2"/></g><g><title>lj_meta_cat (3 samples, 0.43%)</title><rect width="5.1" height="15" x="632.1" y="85" fill="#D47B0D" rx="2" ry="2"/></g><g><title>ngx_http_write_filter (6 samples, 0.86%)</title><rect width="10.2" height="15" x="951.6" y="85" fill="#F74F0F" rx="2" ry="2"/></g><g><title>lj_buf_putstr (4 samples, 0.57%)</title><rect width="6.7" height="15" x="1163" y="37" fill="#E2531E" rx="2" ry="2"/></g><g><title>T:@/usr/local/openresty/lualib/resty/core/ctx.lua:33 (69 samples, 9.89%)</title><rect width="116.7" height="15" x="1046.3" y="85" fill="#EDCA04" rx="2" ry="2"/><text x="1049.3" y="95.5">T:@/usr/local/..</text></g><g><title>T:@/usr/local/apioak/apioak/pdk/plugin.lua:8 (29 samples, 4.15%)</title><rect width="49" height="15" x="10" y="53" fill="#D04A24" rx="2" ry="2"/><text x="13" y="63.5">T:@/..</text></g><g><title>rehashtab (3 samples, 0.43%)</title><rect width="5.1" height="15" x="116.5" y="53" fill="#EB6302" rx="2" ry="2"/></g><g><title>lj_buf_putstr_lower (3 samples, 0.43%)</title><rect width="5.1" height="15" x="376.8" y="53" fill="#D63E1D" rx="2" ry="2"/></g><g><title>@/usr/local/openresty/lualib/resty/core/request.lua:299 (14 samples, 2.01%)</title><rect width="23.7" height="15" x="456.3" y="85" fill="#FC8004" rx="2" ry="2"/><text x="459.3" y="95.5">@..</text></g><g><title>builtin#93 (9 samples, 1.29%)</title><rect width="15.2" height="15" x="589.9" y="85" fill="#D74406" rx="2" ry="2"/></g><g><title>__memcpy_ssse3_back (12 samples, 1.72%)</title><rect width="20.3" height="15" x="745.4" y="37" fill="#D96E09" rx="2" ry="2"/></g><g><title>@/usr/local/apioak/apioak/sys/router.lua:140 (75 samples, 10.74%)</title><rect width="126.8" height="15" x="59" y="85" fill="#D29A31" rx="2" ry="2"/><text x="62.03" y="95.5">@/usr/local/ap..</text></g><g><title>ngx_parse_url (6 samples, 0.86%)</title><rect width="10.1" height="15" x="693" y="53" fill="#CF3333" rx="2" ry="2"/></g><g><title>lj_BC_TGETS (3 samples, 0.43%)</title><rect width="5" height="15" x="589.9" y="69" fill="#F2AD2E" rx="2" ry="2"/></g><g><title>@/usr/local/apioak/apioak/apioak.lua:119 (110 samples, 15.76%)</title><rect width="186" height="15" x="977" y="101" fill="#E7BC35" rx="2" ry="2"/><text x="979.99" y="111.5">@/usr/local/apioak/apioak..</text></g><g><title>__memcpy_ssse3_back (8 samples, 1.15%)</title><rect width="13.6" height="15" x="485" y="69" fill="#DF7C26" rx="2" ry="2"/></g><g><title>ngx_http_lua_ffi_var_set (3 samples, 0.43%)</title><rect width="5" height="15" x="480" y="53" fill="#F1B636" rx="2" ry="2"/></g><g><title>lj_BC_TGETS (3 samples, 0.43%)</title><rect width="5" height="15" x="890.8" y="85" fill="#DDC613" rx="2" ry="2"/></g><g><title>T:@/usr/local/apioak/apioak/sys/router.lua:155 (83 samples, 11.89%)</title><rect width="140.3" height="15" x="185.8" y="69" fill="#D79B06" rx="2" ry="2"/><text x="188.82" y="79.5">T:@/usr/local/ap..</text></g><g><title>_int_free (4 samples, 0.57%)</title><rect width="6.8" height="15" x="223" y="53" fill="#DA9000" rx="2" ry="2"/></g><g><title>lj_alloc_free (7 samples, 1.00%)</title><rect width="11.9" height="15" x="146.9" y="69" fill="#D51E10" rx="2" ry="2"/></g><g><title>@/usr/local/openresty/lualib/resty/core/misc.lua:108 (5 samples, 0.72%)</title><rect width="8.5" height="15" x="865.4" y="101" fill="#EA0C2E" rx="2" ry="2"/></g><g><title>lj_alloc_malloc (3 samples, 0.43%)</title><rect width="5" height="15" x="248.4" y="53" fill="#E27C29" rx="2" ry="2"/></g><g><title>lj_tab_setstr (3 samples, 0.43%)</title><rect width="5.1" height="15" x="280.5" y="53" fill="#F0981F" rx="2" ry="2"/></g><g><title>ngx_sprintf_num (3 samples, 0.43%)</title><rect width="5.1" height="15" x="703.1" y="53" fill="#DBBC03" rx="2" ry="2"/></g><g><title>lj_tab_set (3 samples, 0.43%)</title><rect width="5" height="15" x="838.4" y="37" fill="#D16F0D" rx="2" ry="2"/></g><g><title>lj_str_new (14 samples, 2.01%)</title><rect width="23.6" height="15" x="70.9" y="53" fill="#E71619" rx="2" ry="2"/><text x="73.86" y="63.5">l..</text></g><g><title>lj_vm_exit_interp (3 samples, 0.43%)</title><rect width="5.1" height="15" x="654.1" y="85" fill="#CDBA22" rx="2" ry="2"/></g><g><title>_IO_vsprintf (4 samples, 0.57%)</title><rect width="6.8" height="15" x="216.2" y="53" fill="#F3DD30" rx="2" ry="2"/></g><g><title>r3_tree_match_route (4 samples, 0.57%)</title><rect width="6.7" height="15" x="285.6" y="53" fill="#D85F1A" rx="2" ry="2"/></g><g><title>=access_by_lua(nginx.conf:119):0 (384 samples, 55.01%)</title><rect width="649.2" height="15" x="10" y="117" fill="#D43A2D" rx="2" ry="2"/><text x="13" y="127.5">=access_by_lua(nginx.conf:119):0</text></g><g><title>lj_alloc_free (8 samples, 1.15%)</title><rect width="13.5" height="15" x="723.4" y="85" fill="#E87B2E" rx="2" ry="2"/></g><g><title>@/usr/local/apioak/apioak/pdk/plugin.lua:8 (41 samples, 5.87%)</title><rect width="69.3" height="15" x="977" y="69" fill="#D1391A" rx="2" ry="2"/><text x="979.99" y="79.5">@/usr/l..</text></g><g><title>@/usr/local/openresty/lualib/resty/core/ctx.lua:33 (19 samples, 2.72%)</title><rect width="32.1" height="15" x="398.8" y="85" fill="#FEBA2B" rx="2" ry="2"/><text x="401.83" y="95.5">@/..</text></g><g><title>gc_sweep (9 samples, 1.29%)</title><rect width="15.2" height="15" x="326.1" y="69" fill="#F92B31" rx="2" ry="2"/></g></g></svg>